<svg version="1.1" id="Layer_1" xmlns="http://www.w3.org/2000/svg" xmlns:xlink="http://www.w3.org/1999/xlink" x="0px" y="0px"
	 width="100%" viewBox="0 0 86 56" enable-background="new 0 0 86 56" xml:space="preserve">
<path fill="#FAF9FA" opacity="1.000000" stroke="none" 
	d="
M51.275043,56.755928 
	C45.311958,57.000000 39.623920,57.000000 33.467941,57.000000 
	C27.685396,55.251045 23.245712,52.185436 19.593468,47.981205 
	C17.797430,45.913727 15.510369,45.453796 12.905795,45.346405 
	C9.138869,45.191093 5.270396,46.155197 1.308569,44.245239 
	C1.000000,40.638714 1.000000,37.277424 1.000000,33.458069 
	C3.404586,31.988907 4.657296,30.122906 5.863631,27.798094 
	C8.229300,23.239056 9.794217,17.664087 13.360488,14.444482 
	C19.011826,9.342492 24.529377,3.414948 32.747002,1.239059 
	C38.688042,1.000000 44.376080,1.000000 50.532059,1.000000 
	C55.986633,2.605096 60.167709,5.461486 63.782017,9.207077 
	C65.798050,11.296333 68.394684,11.473475 71.108124,11.620725 
	C76.192429,11.896634 81.368965,10.671984 86.680099,12.750916 
	C87.000000,14.388889 87.000000,15.777779 87.000000,17.583334 
	C85.621834,21.114084 85.236717,24.278101 86.760513,27.763027 
	C87.000000,31.030594 87.000000,34.061188 87.000000,37.545891 
	C82.795738,44.613079 76.896019,47.999699 68.969749,47.104656 
	C66.370979,46.811195 64.600365,47.596031 62.787079,49.394909 
	C59.593853,52.562771 56.089111,55.396461 51.275043,56.755928 
z"/>
<path fill="#000000" opacity="1.000000" stroke="none" 
	d="
M32.531342,1.000000 
	C33.773365,2.547015 32.745415,2.613255 31.604734,3.036446 
	C26.926359,4.772117 22.780590,7.171343 19.809824,11.503139 
	C18.211477,13.833754 13.665751,12.783372 12.941441,16.574051 
	C12.654996,18.073160 9.428248,19.133018 12.222319,21.126987 
	C13.007116,21.687054 12.178566,21.902052 11.887969,21.947794 
	C7.533143,22.633266 7.429492,26.934643 6.310893,29.642273 
	C5.217858,32.288021 3.861840,33.109512 1.297480,33.309776 
	C1.000000,23.234388 1.109543,13.466680 0.922607,3.704649 
	C0.876152,1.278729 1.490336,0.898891 3.759997,0.935703 
	C13.192093,1.088683 22.628107,1.000000 32.531342,1.000000 
z"/>
<path fill="#000000" opacity="1.000000" stroke="none" 
	d="
M51.468658,57.000000 
	C49.972080,55.722622 51.082729,55.288372 51.924805,55.073708 
	C56.894756,53.806751 60.312199,50.287273 63.585850,46.755028 
	C64.527901,45.738564 64.974770,44.593914 66.485703,45.122749 
	C75.333290,48.219433 81.180283,43.635277 86.705444,37.710510 
	C87.000000,43.290539 86.763779,48.595779 87.091858,53.865894 
	C87.277725,56.851555 86.237587,57.105827 83.679527,57.067120 
	C73.100868,56.907055 62.518391,57.000000 51.468658,57.000000 
z"/>
<path fill="#000000" opacity="1.000000" stroke="none" 
	d="
M87.000000,12.520824 
	C84.032013,12.996648 81.060165,12.894270 78.096794,13.009580 
	C70.872772,13.290681 63.855759,13.816158 58.818436,6.604535 
	C57.120796,4.174134 53.274799,3.244366 50.705338,1.314379 
	C61.893856,1.000000 72.788986,1.089113 83.680618,0.933826 
	C86.225037,0.897550 87.463982,1.129532 87.070763,4.128124 
	C86.730301,6.724411 87.000000,9.400714 87.000000,12.520824 
z"/>
<path fill="#000000" opacity="1.000000" stroke="none" 
	d="
M1.000000,44.476662 
	C1.665261,44.003338 2.330647,43.999477 2.995763,44.011105 
	C11.104783,44.152870 19.684740,42.152279 25.152813,51.333103 
	C26.627502,53.809090 30.706034,54.734234 33.294674,56.685623 
	C23.266840,57.000000 13.532921,56.935787 3.801113,57.050503 
	C1.682183,57.075478 0.655039,56.935417 0.923886,54.348633 
	C1.246166,51.247723 1.000000,48.087730 1.000000,44.476662 
z"/>
<path fill="#000000" opacity="1.000000" stroke="none" 
	d="
M87.000000,27.545891 
	C86.017876,27.676268 83.742088,28.439499 84.210403,27.130142 
	C85.354477,23.931389 83.865997,20.232643 86.640808,17.696953 
	C87.000000,21.030594 87.000000,24.061186 87.000000,27.545891 
z"/>
<path fill="#F9B628" opacity="1.000000" stroke="none" 
	d="
M31.298088,51.299091 
	C26.878473,48.600956 22.653263,45.923279 20.862698,40.481121 
	C20.683372,39.895107 20.596004,39.656101 20.568161,39.039577 
	C21.329199,36.532463 22.706617,35.177299 25.357172,34.807346 
	C26.452244,34.705891 27.178637,34.714600 28.251095,34.710472 
	C29.041687,34.710121 29.485844,34.721794 30.243366,34.747051 
	C31.148682,34.759819 31.740870,34.802650 32.586903,34.639557 
	C33.160038,34.374706 33.423252,34.132812 33.762711,33.575130 
	C34.429096,31.919172 34.801533,30.407192 36.733166,29.792261 
	C38.603958,31.133179 38.112263,33.936504 40.909546,34.590340 
	C41.702629,34.646053 42.158211,34.663090 42.961296,34.671455 
	C44.244713,34.657204 45.180653,34.697559 46.471977,34.673683 
	C48.242561,34.674442 49.660599,34.738892 51.413971,34.414722 
	C51.999416,34.331230 52.235260,34.314568 52.823444,34.314663 
	C55.719860,35.028160 57.572124,34.324577 58.748363,31.830622 
	C59.425133,30.395681 60.118851,28.824673 62.401543,28.656719 
	C65.209381,31.432083 64.403633,34.770397 64.430756,38.276749 
	C61.496307,44.189629 58.444759,49.442169 51.405334,51.089436 
	C49.865379,52.777737 47.791119,52.574265 45.846199,53.463524 
	C43.334469,53.487751 41.216091,53.491959 38.698914,53.455643 
	C36.783092,52.918068 35.271172,52.381676 33.289055,52.217209 
	C32.943516,52.013073 33.000755,51.990997 33.007927,52.020821 
	C32.607548,51.649548 32.112003,51.406143 31.298088,51.299091 
z"/>
<path fill="#F4B12B" opacity="1.000000" stroke="none" 
	d="
M53.776917,35.284027 
	C53.249210,35.128372 53.042217,35.105286 52.524445,35.050301 
	C52.213665,35.018402 51.788059,34.975731 51.694950,34.786125 
	C51.601841,34.596523 51.376678,34.231014 51.376678,34.231014 
	C51.376678,34.231014 51.204987,34.645260 50.987282,34.800190 
	C49.609905,35.481838 48.408646,35.614128 46.879311,35.142906 
	C45.555820,32.579433 46.567913,30.785158 48.498825,28.999250 
	C48.913540,28.285992 50.271683,29.478579 49.710224,27.801155 
	C49.632851,26.057638 50.305691,24.914354 51.587494,23.715744 
	C52.309914,23.325140 52.760838,23.210070 53.574249,23.213642 
	C54.815300,23.165699 54.945221,24.636374 55.877773,24.250885 
	C56.038120,24.184601 55.589985,23.425831 54.794884,23.134216 
	C53.812119,22.999130 53.145660,22.997465 52.137161,23.042351 
	C50.897743,23.314774 49.977070,23.310621 48.720123,23.327253 
	C46.465359,23.340942 44.442493,22.953703 42.786774,25.025280 
	C42.087063,25.800758 41.525200,26.198832 40.526489,26.530872 
	C39.952427,26.573847 39.721935,26.548502 39.186867,26.373158 
	C37.955215,24.398960 37.076954,24.846241 36.058170,26.197857 
	C34.257553,28.586725 33.457657,31.549986 31.285778,34.075802 
	C30.778725,34.293926 30.550987,34.313129 30.019295,34.173599 
	C28.302776,31.889931 28.890434,29.539598 28.923323,27.242632 
	C28.938305,26.196159 29.443066,24.645544 27.067326,25.338245 
	C25.875225,26.061480 25.246475,26.879150 24.598942,28.120285 
	C23.884832,29.196455 23.214573,29.850359 22.066172,30.514824 
	C21.231539,30.793650 20.731857,30.823305 19.861038,30.644352 
	C17.363604,28.933537 18.229189,27.009205 19.032501,25.212868 
	C20.307175,22.362497 21.714449,19.569084 23.939560,16.891277 
	C24.559053,16.617208 24.885843,16.593735 25.203253,16.532032 
	C25.665266,16.442225 26.087973,16.604507 26.526690,16.667057 
	C26.162266,16.266384 25.696978,16.579500 24.952530,16.505936 
	C23.934872,16.636900 23.252712,16.760315 22.341820,16.183716 
	C23.270620,12.536647 25.828588,10.489947 29.251530,8.959038 
	C29.808430,8.977969 30.018436,8.986377 30.387411,9.261566 
	C30.727802,10.083371 30.822203,10.666572 31.269619,11.372579 
	C33.123356,10.947553 33.491196,8.797062 35.605083,8.213761 
	C37.550648,7.745235 39.106689,7.881667 40.819763,8.883535 
	C41.397835,9.286805 41.400097,9.909650 41.809383,9.891199 
	C42.129871,9.876750 42.050434,9.563552 41.518387,9.146209 
	C41.489864,8.434834 41.656544,8.065564 42.208290,7.597744 
	C43.725231,7.484200 44.952644,7.601082 47.221584,7.349792 
	C46.842110,7.375667 45.693634,6.653436 46.070335,7.203470 
	C46.109108,7.260084 45.999393,7.470945 45.729900,7.479473 
	C44.921791,7.505045 44.106106,7.512837 42.997215,7.173942 
	C42.492378,6.525270 42.439781,6.041490 42.674294,5.194305 
	C43.330849,4.596385 43.839809,4.506850 44.733829,4.752176 
	C45.091015,4.930588 45.067356,4.948306 45.068066,4.963066 
	C45.276356,5.275139 45.523785,5.533646 46.076523,5.824894 
	C47.000927,5.942479 47.666538,5.982014 48.660023,6.083675 
	C49.364956,6.470616 49.393669,6.926448 49.502357,7.372909 
	C49.659393,8.017954 49.105232,7.334093 49.567406,7.797390 
	C49.665272,7.895493 49.430046,7.331468 49.921379,6.962716 
	C50.585068,6.858159 50.982086,6.918425 51.676529,7.026097 
	C52.109478,7.238100 52.245007,7.402696 52.493546,7.866478 
	C53.121140,8.998899 54.082973,8.973939 55.112366,9.529392 
	C56.347511,10.681322 57.745060,10.991684 58.862495,12.249942 
	C59.694542,13.189384 60.375778,13.827181 61.143414,14.735417 
	C61.808647,18.544163 59.106422,17.901976 56.790329,18.181610 
	C54.989548,17.968082 53.546646,17.177942 51.872646,18.268785 
	C51.255627,18.290180 50.948826,18.479429 51.093033,18.693819 
	C51.205303,18.860739 51.630383,18.711187 52.187523,18.453316 
	C53.597095,18.104944 54.665268,18.518835 56.105270,18.622047 
	C58.348866,18.789736 60.234165,18.508471 62.492016,18.531748 
	C63.580418,18.894131 64.061455,19.434778 64.415527,20.510920 
	C64.451714,21.119797 64.440117,21.362709 64.273590,21.932770 
	C62.271767,23.096485 61.229782,24.402027 60.322250,26.361004 
	C58.793331,29.661287 57.798241,33.535831 53.776917,35.284027 
z"/>
<path fill="#5F3087" opacity="1.000000" stroke="none" 
	d="
M24.590618,16.546715 
	C22.974020,21.291862 19.786339,25.067476 19.079529,30.003115 
	C19.649750,30.176785 19.852566,30.213432 20.151199,30.544479 
	C20.049906,31.200529 19.789633,31.506695 19.205374,31.908192 
	C18.292755,32.468086 17.721401,32.971382 17.061882,33.809578 
	C16.722063,34.154289 16.571608,34.278049 16.141302,34.485954 
	C13.968496,36.933361 13.543936,41.097054 8.913385,40.072109 
	C5.265934,39.264771 10.189843,38.531082 8.991306,37.444016 
	C9.411459,36.579906 9.380590,35.940609 9.874599,35.228531 
	C13.296779,29.315825 16.456871,23.556875 19.758293,17.471634 
	C19.744101,16.960566 19.588579,16.775789 19.754379,16.423706 
	C20.526482,16.198769 20.977261,16.141142 21.761345,16.007343 
	C22.800407,16.005562 23.506161,16.079952 24.590618,16.546715 
z"/>
<path fill="#663886" opacity="1.000000" stroke="none" 
	d="
M64.548981,38.857613 
	C63.650650,35.683468 63.043167,32.720829 62.219242,29.445673 
	C61.863583,28.959955 61.724369,28.786753 61.649399,28.288034 
	C63.116791,26.677126 64.631653,25.478279 65.364990,23.268234 
	C67.434319,22.416391 68.932388,22.926188 69.559204,24.795200 
	C70.125984,26.485197 68.950729,27.655703 67.658691,28.441750 
	C65.395241,29.818792 65.042336,31.216726 67.624985,32.960068 
	C68.372688,33.437939 68.535126,33.948383 68.313950,34.905964 
	C68.144485,39.362385 70.920143,40.737301 75.200623,41.486656 
	C70.563126,42.830547 67.415916,42.027737 64.548981,38.857613 
z"/>
<path fill="#6A4193" opacity="1.000000" stroke="none" 
	d="
M70.886581,28.307055 
	C71.011734,25.582708 71.305092,23.387924 74.732216,22.688877 
	C74.056839,25.350830 75.193840,27.114491 76.539597,28.998112 
	C79.377182,32.969799 78.018761,35.274010 71.941299,35.903046 
	C74.194664,34.594166 74.711227,33.170490 73.473579,31.195866 
	C72.156525,30.399458 71.006592,29.962109 70.886581,28.307055 
z"/>
<path fill="#CF9820" opacity="1.000000" stroke="none" 
	d="
M36.278221,8.725817 
	C34.115490,9.803783 33.478355,11.520148 32.670170,13.346460 
	C31.775908,15.367270 31.131319,14.245414 30.963182,12.456667 
	C30.785091,11.281178 30.475729,10.448315 30.225849,9.302877 
	C30.020376,9.044300 29.813347,8.995317 29.705887,8.982440 
	C31.213673,6.680630 33.515572,5.854875 36.588696,5.780462 
	C37.456501,6.227599 37.411869,6.837624 37.072559,7.748524 
	C36.781063,8.184462 36.638775,8.340422 36.278221,8.725817 
z"/>
<path fill="#CB8F48" opacity="1.000000" stroke="none" 
	d="
M54.928619,17.128782 
	C57.078949,16.517611 59.415405,18.084259 61.104652,15.369267 
	C61.625359,15.392035 62.020905,15.778213 62.683769,16.260807 
	C63.599552,16.913893 63.654373,17.605589 63.151009,18.634426 
	C60.923828,20.257889 58.788765,20.349510 56.150299,19.620464 
	C55.053402,18.962849 54.654251,18.279144 54.928619,17.128782 
z"/>
<path fill="#D89C45" opacity="1.000000" stroke="none" 
	d="
M65.447723,22.719212 
	C66.214188,25.567293 65.945602,27.617756 62.436623,28.002008 
	C61.305489,25.903378 62.494480,24.422514 63.634178,22.638149 
	C63.965748,22.139612 64.040970,21.864815 64.285515,21.132713 
	C64.744873,21.255835 65.034889,21.836260 65.447723,22.719212 
z"/>
<path fill="#A68BBA" opacity="1.000000" stroke="none" 
	d="
M64.726837,20.426552 
	C64.454849,20.675409 64.418633,20.737160 64.387650,20.753494 
	C63.952404,20.332384 63.548149,19.894939 63.018978,19.180271 
	C62.922573,18.267925 62.951084,17.632805 62.965343,16.677454 
	C67.347031,15.640384 65.852257,18.080915 64.726837,20.426552 
z"/>
<path fill="#8867A8" opacity="1.000000" stroke="none" 
	d="
M77.850700,16.609907 
	C79.190590,16.144903 80.701813,15.467858 80.999817,16.914160 
	C81.234856,18.054924 81.366234,20.190496 78.532944,19.782593 
	C77.778679,19.502035 77.489082,19.179115 77.251305,18.423338 
	C77.229897,17.634964 77.352249,17.207073 77.850700,16.609907 
z"/>
<path fill="#8B5565" opacity="1.000000" stroke="none" 
	d="
M26.134256,35.422081 
	C23.904871,35.738953 22.387476,36.630077 21.397894,38.942726 
	C20.704691,39.072266 20.334723,38.860119 19.884836,38.258018 
	C19.754023,37.959702 19.770596,37.543461 19.760046,37.335442 
	C19.586529,36.661957 19.488209,36.182739 19.553843,35.337193 
	C21.294218,33.456688 23.145658,33.209831 25.487814,34.241730 
	C25.936996,34.655544 26.079628,34.858219 26.134256,35.422081 
z"/>
<path fill="#EDAD25" opacity="1.000000" stroke="none" 
	d="
M36.315044,8.243906 
	C36.285183,7.471069 36.563881,6.897848 36.904739,6.009471 
	C36.966900,5.694317 37.029781,5.300792 37.156620,5.147117 
	C38.725433,4.143606 40.142090,4.405182 41.810673,5.359869 
	C42.174019,5.857446 42.275780,6.085777 42.295376,6.679670 
	C41.819294,7.350213 41.411018,7.634453 40.628830,7.994127 
	C39.056107,8.215413 37.869293,8.636426 36.315044,8.243906 
z"/>
<path fill="#87597F" opacity="1.000000" stroke="none" 
	d="
M20.323059,34.329674 
	C20.094893,35.209885 20.012053,35.761436 19.839355,36.720207 
	C18.729269,36.289440 17.709044,35.451454 16.275135,34.591785 
	C15.861455,34.570103 15.882167,34.541515 15.909965,34.523331 
	C16.239580,33.830231 16.893381,33.508217 17.664421,32.801926 
	C18.378599,32.395416 18.845694,32.350494 19.652754,32.552193 
	C20.304945,33.071663 20.459221,33.509247 20.323059,34.329674 
z"/>
<path fill="#A58CBD" opacity="1.000000" stroke="none" 
	d="
M80.787430,23.807140 
	C80.285233,25.057081 80.148277,26.637999 78.791405,26.395714 
	C77.689934,26.199034 77.856384,24.715637 78.065163,23.945314 
	C78.507401,22.313606 79.719421,23.039104 80.787430,23.807140 
z"/>
<path fill="#9577B2" opacity="1.000000" stroke="none" 
	d="
M70.180603,18.340153 
	C70.175476,20.762833 68.866447,20.004213 68.239845,19.297180 
	C67.351822,18.295162 67.780708,16.954477 68.901764,16.458527 
	C70.578484,15.716758 70.121391,17.166887 70.180603,18.340153 
z"/>
<path fill="#696969" opacity="1.000000" stroke="none" 
	d="
M42.265911,5.807839 
	C40.738056,5.246005 39.432049,4.818186 37.632874,4.991114 
	C39.597393,3.402743 42.107624,3.905266 44.849686,4.618565 
	C44.631622,4.986051 44.172230,5.041513 43.373665,5.170055 
	C42.874256,5.384431 42.714016,5.525729 42.265911,5.807839 
z"/>
<path fill="#403723" opacity="1.000000" stroke="none" 
	d="
M37.848038,53.052402 
	C40.329708,52.901974 42.648296,52.975986 45.399208,53.081127 
	C46.058311,53.190987 46.285088,53.269722 46.226246,53.567734 
	C43.569653,53.847389 41.198673,53.907768 38.393593,53.863594 
	C37.867977,53.598309 37.776463,53.437576 37.848038,53.052402 
z"/>
<path fill="#795C1F" opacity="1.000000" stroke="none" 
	d="
M55.025368,10.154352 
	C53.637447,9.969566 52.190231,10.340172 51.934429,8.281887 
	C52.139080,7.818357 52.307194,7.714886 52.751991,7.716886 
	C53.891495,7.996524 54.754311,8.170691 55.701859,8.669619 
	C55.695320,9.385662 55.535000,9.747090 55.025368,10.154352 
z"/>
<path fill="#736037" opacity="1.000000" stroke="none" 
	d="
M37.806156,52.484570 
	C38.011120,52.827957 38.040672,53.296631 38.000084,53.527840 
	C36.419842,53.366142 34.880192,52.973236 33.142029,52.296703 
	C34.499046,51.947784 36.074116,51.172035 37.806156,52.484570 
z"/>
<path fill="#847961" opacity="1.000000" stroke="none" 
	d="
M46.300568,53.826328 
	C45.940632,53.787006 45.875557,53.451538 45.853546,53.281898 
	C47.340233,52.498104 48.848927,51.883953 50.692989,51.190239 
	C50.844147,54.045269 48.025162,52.802582 46.300568,53.826328 
z"/>
<path fill="#724079" opacity="1.000000" stroke="none" 
	d="
M19.444485,38.110909 
	C20.110003,38.180260 20.465981,38.400818 20.978006,38.899422 
	C21.083189,39.340557 21.032328,39.503651 20.876104,39.900429 
	C19.314919,40.134117 17.859097,40.134117 16.258913,40.134117 
	C16.794733,38.367920 18.502621,39.267620 19.444485,38.110909 
z"/>
<path fill="#DCD3E6" opacity="1.000000" stroke="none" 
	d="
M9.737259,35.055511 
	C9.969262,35.661453 9.801837,36.248131 9.357592,36.971298 
	C8.281395,35.291103 6.024709,36.714832 4.778968,35.036251 
	C6.476490,35.036251 7.907159,35.036251 9.737259,35.055511 
z"/>
<path fill="#BDAACF" opacity="1.000000" stroke="none" 
	d="
M77.702896,17.770079 
	C78.040657,18.384388 78.089653,18.762280 78.166290,19.423840 
	C76.943741,19.684271 75.693565,19.661034 74.182632,19.365654 
	C74.004646,18.584480 74.229256,18.148342 74.915665,17.588284 
	C75.981514,17.148098 76.708649,17.174435 77.702896,17.770079 
z"/>
<path fill="#8D6DAC" opacity="1.000000" stroke="none" 
	d="
M75.313568,17.772190 
	C74.896751,18.350405 74.647743,18.600615 74.160309,18.972166 
	C72.335480,17.886440 72.957329,16.958746 74.625626,16.135117 
	C75.321655,16.501913 75.506920,16.930111 75.313568,17.772190 
z"/>
<path fill="#EFEBF4" opacity="1.000000" stroke="none" 
	d="
M70.780098,28.211506 
	C71.669304,28.802135 72.288727,29.611074 73.042137,30.696373 
	C71.545067,30.903431 69.482277,31.286724 70.780098,28.211506 
z"/>
<path fill="#A78DBF" opacity="1.000000" stroke="none" 
	d="
M75.499336,18.065823 
	C75.102928,17.666069 75.060089,17.231947 74.985336,16.473042 
	C75.758057,16.139778 76.562706,16.131296 77.744797,16.266109 
	C78.088959,16.763689 78.055656,17.117973 78.007011,17.739378 
	C77.278748,18.014816 76.565826,18.023132 75.499336,18.065823 
z"/>
<path fill="#443411" opacity="1.000000" stroke="none" 
	d="
M54.976219,10.481581 
	C54.947254,9.932113 55.159660,9.638621 55.579323,9.169756 
	C56.574345,10.297845 58.719887,9.990192 59.054329,12.167231 
	C57.748066,11.946909 56.482830,11.342233 54.976219,10.481581 
z"/>
<path fill="#79539D" opacity="1.000000" stroke="none" 
	d="
M68.509842,35.238480 
	C68.093727,34.777229 68.043518,34.269333 67.994980,33.378452 
	C68.425354,32.211456 69.127983,31.604433 69.701347,32.589008 
	C70.223724,33.486023 70.576157,34.784260 68.509842,35.238480 
z"/>
<path fill="#736037" opacity="1.000000" stroke="none" 
	d="
M31.205570,51.562141 
	C31.790501,50.184635 32.308403,51.208542 32.958321,51.807800 
	C32.471962,51.957363 31.928831,51.864079 31.205570,51.562141 
z"/>
<path fill="#EAAB24" opacity="1.000000" stroke="none" 
	d="
M50.076069,6.560201 
	C49.926914,7.226190 50.235027,8.133516 49.335232,7.968495 
	C49.151543,7.934807 49.104191,7.157751 48.990940,6.434585 
	C49.313290,6.204704 49.638691,6.263606 50.076069,6.560201 
z"/>
<path fill="#8562A5" opacity="1.000000" stroke="none" 
	d="
M19.754690,16.178188 
	C20.075703,16.256399 20.050756,16.713346 19.975189,16.929344 
	C19.166830,16.842110 18.135624,17.345232 17.669952,16.320196 
	C18.257860,16.246790 18.845770,16.173384 19.754690,16.178188 
z"/>
<path fill="#C1B0D2" opacity="1.000000" stroke="none" 
	d="
M77.722900,39.981293 
	C77.750504,40.564693 77.416130,41.006233 76.717476,40.644691 
	C76.944344,40.403564 77.171211,40.162434 77.722900,39.981293 
z"/>
<path fill="#C1B0D2" opacity="1.000000" stroke="none" 
	d="
M79.118858,38.861176 
	C78.980690,38.641903 79.167076,38.480591 79.353462,38.319279 
	C79.383446,38.519230 79.413429,38.719185 79.118858,38.861176 
z"/>
<path fill="#C1B0D2" opacity="1.000000" stroke="none" 
	d="
M77.953262,39.949196 
	C78.067307,39.626045 78.211746,39.334694 78.575241,38.923279 
	C78.794304,38.803211 78.951645,38.957462 79.029129,39.037575 
	C79.006821,39.448555 78.809044,39.703358 78.280518,39.961693 
	C78.047737,40.041283 77.983658,39.980999 77.953262,39.949196 
z"/>
<path fill="#ECE5ED" opacity="1.000000" stroke="none" 
	d="
M5.558528,40.466251 
	C5.595025,40.523796 5.522032,40.408707 5.558528,40.466251 
z"/>
<path fill="#EAAB24" opacity="1.000000" stroke="none" 
	d="
M52.942562,7.571545 
	C52.854107,7.856653 52.679539,7.890949 52.237968,7.923536 
	C51.970970,7.921829 51.981979,7.497584 51.977966,7.285543 
	C52.268120,7.155913 52.562283,7.238323 52.942562,7.571545 
z"/>
<path fill="#AE97C4" opacity="1.000000" stroke="none" 
	d="
M76.301147,22.393190 
	C76.574913,22.368984 76.676514,22.465719 76.778122,22.562454 
	C76.561745,22.546347 76.345375,22.530239 76.301147,22.393190 
z"/>
<path fill="#EAAB24" opacity="1.000000" stroke="none" 
	d="
M46.214676,5.636808 
	C46.001732,5.757426 45.668148,5.611906 45.201672,5.222106 
	C45.410530,5.108775 45.752285,5.239723 46.214676,5.636808 
z"/>
<path fill="#E2A136" opacity="1.000000" stroke="none" 
	d="
M41.760208,25.400381 
	C42.081100,20.450186 45.387127,22.286360 48.204391,22.362907 
	C49.402031,27.782125 45.261570,31.125994 43.263458,35.705372 
	C42.567497,36.015293 42.117027,36.039597 41.329460,36.030064 
	C39.241646,33.756805 38.964275,31.136097 39.137062,28.046318 
	C39.632118,26.575720 40.931465,26.548731 41.760208,25.400381 
z"/>
<path fill="#6A3778" opacity="1.000000" stroke="none" 
	d="
M63.553230,22.422421 
	C64.489014,24.413437 62.937080,25.688635 62.162502,27.575525 
	C62.051750,28.099199 62.038567,28.305677 62.014091,28.822659 
	C60.645969,29.939209 59.952427,31.376999 59.667133,32.695816 
	C58.904591,36.220783 56.710186,36.388145 53.684776,35.401653 
	C56.762665,32.321129 58.490704,28.350679 59.815464,24.506367 
	C60.634781,22.128807 61.706314,22.483879 63.553230,22.422421 
z"/>
<path fill="#63327B" opacity="1.000000" stroke="none" 
	d="
M43.403900,35.950844 
	C43.120064,31.012152 47.205803,27.682693 48.496735,22.812305 
	C49.406002,22.472210 50.160583,22.451847 51.192757,22.349636 
	C52.186539,22.192892 52.515636,22.514036 52.272797,23.624016 
	C51.434765,25.144781 50.780823,26.273535 50.053604,28.041336 
	C48.141079,30.279547 47.244080,32.404243 46.732121,35.077652 
	C45.819275,35.615852 44.804558,35.763275 43.403900,35.950844 
z"/>
<path fill="#63317C" opacity="1.000000" stroke="none" 
	d="
M30.647526,34.088043 
	C32.455692,30.581013 34.238522,27.484938 35.729843,24.254295 
	C36.480179,22.628847 37.659588,22.512096 38.893566,22.911869 
	C40.419106,23.406099 39.206696,24.460907 39.032780,25.640182 
	C39.491993,27.646223 38.295322,28.644320 37.230736,30.003622 
	C35.315353,31.092224 34.923595,32.754242 34.321022,34.664051 
	C34.348274,35.202747 34.397972,35.375092 34.195423,35.641029 
	C33.225323,35.777538 32.507469,35.820457 31.430969,35.825607 
	C30.650591,35.437954 30.460411,34.989799 30.647526,34.088043 
z"/>
<path fill="#62317C" opacity="1.000000" stroke="none" 
	d="
M26.405373,35.822567 
	C25.979040,35.578281 25.911827,35.373302 25.712097,34.873123 
	C24.993742,33.794998 24.941320,32.878914 24.940563,31.617292 
	C24.988396,31.061525 25.020216,30.842390 25.124292,30.303692 
	C25.719475,28.579117 25.714899,27.092903 25.911293,25.318954 
	C26.990486,23.762098 28.050192,22.147583 29.897718,22.985260 
	C31.751810,23.825920 30.464289,25.491415 30.357676,26.822870 
	C30.189856,28.918741 30.048449,31.016726 29.967564,33.549431 
	C29.991938,34.556519 29.802969,35.067486 29.162884,35.636089 
	C28.206663,35.811279 27.485577,35.836575 26.405373,35.822567 
z"/>
<path fill="#66347A" opacity="1.000000" stroke="none" 
	d="
M36.951393,30.570467 
	C36.888973,28.715626 37.147198,27.369318 38.794239,26.282293 
	C39.000149,25.999723 39.400879,26.121140 39.603153,26.175156 
	C40.038235,26.290867 40.271046,26.352558 40.338947,26.735683 
	C40.515728,29.766127 40.857410,32.475140 41.095730,35.590187 
	C37.235977,36.233871 37.604340,33.193913 36.951393,30.570467 
z"/>
<path fill="#8A5466" opacity="1.000000" stroke="none" 
	d="
M47.225632,35.598160 
	C46.833996,35.468426 46.843449,35.463474 46.825012,35.469894 
	C48.150360,34.923286 49.494141,34.370258 51.160408,33.653076 
	C51.720390,33.487309 51.957886,33.485691 52.212021,33.839935 
	C52.228653,34.195801 52.207417,34.606796 52.210541,34.812599 
	C50.844742,36.312244 49.233807,36.038246 47.225632,35.598160 
z"/>
<path fill="#8B5565" opacity="1.000000" stroke="none" 
	d="
M29.281740,35.871368 
	C29.127785,35.266750 29.327824,34.747517 29.783566,34.106667 
	C30.039268,33.985046 30.404629,33.823643 30.598972,33.778168 
	C30.859476,34.189034 30.925636,34.645378 31.032059,35.444778 
	C30.593462,35.844139 30.114597,35.900444 29.281740,35.871368 
z"/>
<path fill="#A97B1A" opacity="1.000000" stroke="none" 
	d="
M46.971058,40.320107 
	C47.874054,40.445469 48.071171,41.187325 47.845207,42.064934 
	C47.828320,42.130535 47.214970,42.145336 47.199989,42.092579 
	C47.067333,41.625397 47.007256,41.137600 46.971058,40.320107 
z"/>
<path fill="#A97B1A" opacity="1.000000" stroke="none" 
	d="
M46.990067,40.007065 
	C46.114765,39.636322 45.885853,38.957195 46.143181,38.107029 
	C46.170113,38.018051 46.768982,37.990376 46.778656,38.024929 
	C46.902069,38.465679 46.966297,38.923000 47.030968,39.680214 
	C47.016373,39.984314 46.999615,40.000126 46.990067,40.007065 
z"/>
<path fill="#8B5565" opacity="1.000000" stroke="none" 
	d="
M34.172569,35.737461 
	C33.983429,35.559830 34.046967,35.393967 34.216187,35.133720 
	C34.298576,35.030407 34.630260,35.344666 34.630260,35.344666 
	C34.630260,35.344666 34.401962,35.740303 34.172569,35.737461 
z"/>
<path fill="#F1AE2E" opacity="1.000000" stroke="none" 
	d="
M25.681377,30.778706 
	C25.911604,31.985954 25.856661,32.941101 25.690647,34.237091 
	C23.978180,34.706116 22.376781,34.834297 20.476559,34.810410 
	C20.167395,34.275570 20.157059,33.892803 20.078053,33.229958 
	C19.605097,32.396851 19.444672,31.780346 19.583574,30.611130 
	C19.639194,30.121859 19.557341,30.272636 19.502138,30.206387 
	C19.952541,30.100540 20.458149,30.060944 21.343964,30.007206 
	C22.975460,29.983196 24.274683,29.643391 25.681377,30.778706 
z"/>
<path fill="#E4A335" opacity="1.000000" stroke="none" 
	d="
M25.624889,25.047272 
	C28.084360,26.261126 26.829456,28.032221 26.402857,29.903217 
	C24.700903,30.684420 23.691313,30.453897 23.795208,28.273436 
	C24.033224,26.750710 23.890188,25.563265 25.624889,25.047272 
z"/>
<path fill="#A16959" opacity="1.000000" stroke="none" 
	d="
M54.872803,16.675823 
	C55.355423,17.585358 55.586739,18.283821 55.778908,19.246899 
	C54.470253,20.420813 53.614666,18.929516 52.143723,18.952343 
	C51.364780,19.152679 51.051098,19.028400 50.908752,18.328432 
	C52.220562,17.564041 52.551350,14.995925 54.872803,16.675823 
z"/>
<path fill="#744072" opacity="1.000000" stroke="none" 
	d="
M55.036118,22.265329 
	C56.208267,22.662045 58.104790,21.937437 57.564331,23.911428 
	C57.285721,24.929029 56.929958,26.232697 55.608074,26.414207 
	C55.420811,26.439920 55.037846,25.040363 54.515358,24.082664 
	C53.510841,23.107689 54.132133,22.726297 55.036118,22.265329 
z"/>
<path fill="#8F5863" opacity="1.000000" stroke="none" 
	d="
M33.027931,17.030693 
	C32.744812,18.202730 34.189217,19.722113 32.163696,19.900303 
	C31.489086,19.959652 30.187067,20.227489 30.596170,19.027878 
	C30.921715,18.073284 30.398521,15.586547 33.027931,17.030693 
z"/>
<path fill="#876215" opacity="1.000000" stroke="none" 
	d="
M36.000366,8.273174 
	C37.160336,7.797771 38.314186,7.551251 39.822380,7.272067 
	C40.643410,7.539951 41.189663,7.504275 41.867462,7.811530 
	C42.022186,8.443816 42.014050,8.865521 41.863491,9.783611 
	C40.218563,9.328709 38.620964,8.750712 36.432747,8.991503 
	C36.059959,8.955252 35.994255,8.502058 36.000366,8.273174 
z"/>
<path fill="#503A0D" opacity="1.000000" stroke="none" 
	d="
M42.423904,8.019786 
	C41.523930,7.894607 41.017544,7.767103 40.343933,7.439501 
	C40.586109,7.174788 40.995502,7.110171 41.700027,6.946593 
	C42.159672,6.712515 42.324188,6.577398 42.752419,6.622374 
	C44.356491,7.302073 45.955608,6.491601 47.664051,8.017460 
	C45.721581,8.017460 44.269535,8.017460 42.423904,8.019786 
z"/>
<path fill="#784470" opacity="1.000000" stroke="none" 
	d="
M50.840977,17.741615 
	C51.021137,18.336002 51.157032,18.586214 51.590958,18.867226 
	C51.152649,20.518335 50.049828,20.186134 49.180042,19.372408 
	C48.412209,18.654058 48.446438,17.496006 49.208164,16.778847 
	C49.804497,16.217403 50.303543,16.966515 50.840977,17.741615 
z"/>
<path fill="#865068" opacity="1.000000" stroke="none" 
	d="
M42.913258,16.715015 
	C43.358852,18.100773 43.722546,19.278824 42.255276,19.788588 
	C41.776760,19.954836 40.615654,19.891422 41.078594,19.130781 
	C41.620071,18.241114 39.629578,15.653165 42.913258,16.715015 
z"/>
<path fill="#A76E56" opacity="1.000000" stroke="none" 
	d="
M23.725422,27.990528 
	C24.031858,28.883228 24.168701,29.822765 25.785795,30.098915 
	C26.142174,30.169561 26.073542,30.604048 26.020044,30.817427 
	C24.725920,30.871376 23.485294,30.711946 21.984421,30.272793 
	C22.294323,29.367556 22.864471,28.742041 23.725422,27.990528 
z"/>
<path fill="#E2A136" opacity="1.000000" stroke="none" 
	d="
M54.887779,22.127209 
	C55.036789,22.587193 54.699795,22.973833 54.324032,23.612659 
	C53.797394,23.907265 53.309525,23.949686 52.455181,24.004066 
	C51.984894,23.614876 51.881081,23.213726 51.623810,22.540184 
	C52.447495,22.196484 53.424633,22.125174 54.887779,22.127209 
z"/>
<path fill="#8F5963" opacity="1.000000" stroke="none" 
	d="
M50.081387,29.026257 
	C49.980331,28.680384 49.899014,28.360233 49.935944,28.199383 
	C50.793751,28.306017 51.899746,27.539368 52.448841,28.680639 
	C52.536549,28.862940 52.262020,29.269283 52.083302,29.521229 
	C51.382187,30.509623 50.774593,29.966717 50.081387,29.026257 
z"/>
<path fill="#6E5111" opacity="1.000000" stroke="none" 
	d="
M29.934212,9.351671 
	C31.210739,9.600501 31.394066,10.659656 31.178762,11.974631 
	C28.572495,12.214476 29.859907,10.646559 29.934212,9.351671 
z"/>
<path fill="#834E6A" opacity="1.000000" stroke="none" 
	d="
M25.297031,16.940109 
	C24.969318,16.939087 24.914864,16.607029 24.914501,16.438885 
	C25.716839,16.316383 26.519541,16.362024 27.322241,16.407663 
	C26.756409,16.585485 26.190575,16.763309 25.297031,16.940109 
z"/>
<path fill="#BE814A" opacity="1.000000" stroke="none" 
	d="
M40.473362,27.009394 
	C40.174042,27.057116 39.940289,26.664894 39.872856,26.447033 
	C40.338970,25.918795 40.872513,25.608419 41.695087,25.195427 
	C41.913174,25.931540 41.712582,26.686224 40.473362,27.009394 
z"/>
<path fill="#EAAB24" opacity="1.000000" stroke="none" 
	d="
M43.013878,6.542247 
	C42.846809,6.828970 42.677490,6.855474 42.251663,6.864805 
	C41.995159,6.847631 41.990917,6.398147 41.984482,6.173399 
	C42.052464,5.612170 42.245209,5.369815 42.795387,5.232359 
	C43.026875,5.589431 43.019253,5.935730 43.013878,6.542247 
z"/>
<path fill="#A36A59" opacity="1.000000" stroke="none" 
	d="
M46.346024,18.598082 
	C47.035568,18.730621 47.123146,19.239038 46.673576,19.452272 
	C46.082840,19.732460 46.044235,19.218466 46.346024,18.598082 
z"/>
<path fill="#8A5466" opacity="1.000000" stroke="none" 
	d="
M51.662437,33.672920 
	C51.824741,33.081543 51.927513,32.271511 52.705414,32.612141 
	C52.834129,32.668503 52.667465,33.399426 52.432980,34.007206 
	C52.099766,34.082836 51.970875,33.969875 51.662437,33.672920 
z"/>
<path fill="#876215" opacity="1.000000" stroke="none" 
	d="
M41.997902,10.008947 
	C42.298119,10.108951 42.505352,10.298580 42.712585,10.488210 
	C42.468975,10.537255 42.225365,10.586302 41.851410,10.457672 
	C41.721069,10.279996 41.904919,10.098575 41.997902,10.008947 
z"/>
<path fill="#F4B12B" opacity="1.000000" stroke="none" 
	d="
M19.301432,30.025196 
	C19.747919,30.750206 19.856646,31.378553 19.987377,32.478386 
	C19.642954,32.980854 19.276520,33.011837 18.633896,33.045357 
	C17.739313,32.765911 17.476582,32.288025 17.735413,31.194759 
	C18.256193,30.492617 18.609932,30.210575 19.301432,30.025196 
z"/>
<path fill="#F3F0F6" opacity="1.000000" stroke="none" 
	d="
M17.613317,30.993992 
	C17.978495,31.285852 18.054537,31.797052 18.244141,32.678070 
	C17.808996,33.605312 17.260286,34.162731 16.324669,34.612648 
	C16.399902,33.407875 16.862041,32.310600 17.613317,30.993992 
z"/>
</svg>